<?xml version="1.0" standalone="no"?>
<!DOCTYPE svg PUBLIC "-//W3C//DTD SVG 20010904//EN"
 "http://www.w3.org/TR/2001/REC-SVG-20010904/DTD/svg10.dtd">
<svg version="1.0" xmlns="http://www.w3.org/2000/svg"
 width="50.000000pt" height="50.000000pt" viewBox="0 0 256.000000 250.000000"
 preserveAspectRatio="xMidYMid meet">

<g transform="translate(0.000000,250.000000) scale(0.100000,-0.100000)"
fill="#000000" stroke="none">
<path d="M187 2373 c-4 -3 -7 -424 -7 -935 l0 -928 919 0 c506 0 922 4 925 8
3 5 6 127 8 273 l3 264 -834 3 c-653 2 -837 5 -843 15 -4 6 -8 303 -8 660 l0
647 -78 0 c-43 0 -82 -3 -85 -7z m1688 -1583 l0 -95 -760 0 -760 0 -3 84 c-2
46 -1 90 2 98 5 11 137 13 763 11 l758 -3 0 -95z"/>
<path d="M560 1820 l0 -560 845 0 845 0 0 -475 0 -475 -1035 0 -1035 0 0 -84
0 -85 43 -6 c23 -3 528 -4 1122 -3 l1080 3 0 650 0 650 -845 5 -845 5 -3 374
c-2 293 1 376 10 383 7 4 390 8 851 8 l838 0 -3 83 -3 82 -932 3 -933 2 0
-560z"/>
<path d="M940 1820 l0 -180 85 0 84 0 3 93 3 92 658 3 657 2 0 85 0 85 -745 0
-745 0 0 -180z"/>
</g>
</svg>
